{
  "accessors": [
    {
      "bufferView": 2,
      "componentType": 5126,
      "count": 1806,
      "max": [
        0.23070815205574036,
        0.2377452552318573,
        0.3593253195285797
      ],
      "min": [
        -0.23070815205574036,
        0.0057895854115486145,
        -0.40648511052131653
      ],
      "type": "VEC3"
    },
    {
      "bufferView": 2,
      "byteOffset": 21672,
      "componentType": 5126,
      "count": 1806,
      "max": [
        1.0,
        1.0,
        1.0
      ],
      "min": [
        -1.0,
        -1.0,
        -0.9957642555236816
      ],
      "type": "VEC3"
    },
    {
      "bufferView": 1,
      "componentType": 5126,
      "count": 1806,
      "max": [
        0.9900000095367432,
        0.75
      ],
      "min": [
        0.13023565709590912,
        0.009999990463256836
      ],
      "type": "VEC2"
    },
    {
      "bufferView": 0,
      "componentType": 5125,
      "count": 2778,
      "type": "SCALAR"
    },
    {
      "bufferView": 2,
      "byteOffset": 43344,
      "componentType": 5126,
      "count": 532,
      "max": [
        0.23070815205574036,
        0.22793693840503693,
        0.3593253195285797
      ],
      "min": [
        -0.2309933602809906,
        0.02479739673435688,
        -0.39637675881385803
      ],
      "type": "VEC3"
    },
    {
      "bufferView": 2,
      "byteOffset": 49728,
      "componentType": 5126,
      "count": 532,
      "max": [
        1.0,
        1.0,
        1.0
      ],
      "min": [
        -1.0,
        -1.0,
        -0.9807850122451782
      ],
      "type": "VEC3"
    },
    {
      "bufferView": 1,
      "byteOffset": 14448,
      "componentType": 5126,
      "count": 532,
      "max": [
        0.9515937566757202,
        0.9375072717666626
      ],
      "min": [
        0.037367235869169235,
        0.027828000485897064
      ],
      "type": "VEC2"
    },
    {
      "bufferView": 0,
      "byteOffset": 11112,
      "componentType": 5125,
      "count": 798,
      "type": "SCALAR"
    },
    {
      "bufferView": 2,
      "byteOffset": 56112,
      "componentType": 5126,
      "count": 1591,
      "max": [
        0.26238512992858887,
        0.22793693840503693,
        0.3593253195285797
      ],
      "min": [
        -0.26238512992858887,
        0.007666934747248888,
        -0.407855361700058
      ],
      "type": "VEC3"
    },
    {
      "bufferView": 2,
      "byteOffset": 75204,
      "componentType": 5126,
      "count": 1591,
      "max": [
        1.0,
        0.9999781847000122,
        1.0
      ],
      "min": [
        -1.0,
        -1.0,
        -1.0
      ],
      "type": "VEC3"
    },
    {
      "bufferView": 1,
      "byteOffset": 18704,
      "componentType": 5126,
      "count": 1591,
      "max": [
        0.875,
        1.0
      ],
      "min": [
        0.1249999925494194,
        0.0
      ],
      "type": "VEC2"
    },
    {
      "bufferView": 0,
      "byteOffset": 14304,
      "componentType": 5125,
      "count": 2478,
      "type": "SCALAR"
    }
  ],
  "asset": {
    "extras": {
      "author": "IQINISO (https://sketchfab.com/iqiniso)",
      "license": "CC-BY-4.0 (http://creativecommons.org/licenses/by/4.0/)",
      "source": "https://sketchfab.com/3d-models/low-poly-computer-mouse-free-download-c6f6d0cd408a41f58aab1837e913fa14",
      "title": "Low poly - Computer Mouse [FREE] Download"
    },
    "generator": "Sketchfab-0.3.0",
    "version": "2.0"
  },
  "bufferViews": [
    {
      "buffer": 0,
      "byteLength": 24216,
      "name": "floatBufferViews",
      "target": 34963
    },
    {
      "buffer": 0,
      "byteLength": 31432,
      "byteOffset": 24216,
      "byteStride": 8,
      "name": "floatBufferViews",
      "target": 34962
    },
    {
      "buffer": 0,
      "byteLength": 94296,
      "byteOffset": 55648,
      "byteStride": 12,
      "name": "floatBufferViews",
      "target": 34962
    }
  ],
  "buffers": [
    {
      "byteLength": 149944,
      "uri": "scene.bin"
    }
  ],
  "images": [
    {
      "uri": "textures/Material.002_baseColor.jpeg"
    }
  ],
  "materials": [
    {
      "doubleSided": true,
      "name": "Material",
      "pbrMetallicRoughness": {
        "baseColorFactor": [
          0.0,
          0.0,
          0.0,
          1.0
        ],
        "metallicFactor": 0.0
      }
    },
    {
      "doubleSided": true,
      "emissiveFactor": [
        1.0,
        1.0,
        1.0
      ],
      "emissiveTexture": {
        "index": 0
      },
      "name": "Material.002",
      "pbrMetallicRoughness": {
        "baseColorFactor": [
          0.0,
          0.0,
          0.0,
          1.0
        ],
        "baseColorTexture": {
          "index": 0
        }
      }
    },
    {
      "doubleSided": true,
      "name": "Material.001",
      "pbrMetallicRoughness": {
        "baseColorFactor": [
          0.0,
          0.0,
          0.0,
          1.0
        ],
        "metallicFactor": 0.5,
        "roughnessFactor": 0.8
      }
    }
  ],
  "meshes": [
    {
      "name": "Object_0",
      "primitives": [
        {
          "attributes": {
            "NORMAL": 1,
            "POSITION": 0,
            "TEXCOORD_0": 2
          },
          "indices": 3,
          "material": 0,
          "mode": 4
        }
      ]
    },
    {
      "name": "Object_1",
      "primitives": [
        {
          "attributes": {
            "NORMAL": 5,
            "POSITION": 4,
            "TEXCOORD_0": 6
          },
          "indices": 7,
          "material": 1,
          "mode": 4
        }
      ]
    },
    {
      "name": "Object_2",
      "primitives": [
        {
          "attributes": {
            "NORMAL": 9,
            "POSITION": 8,
            "TEXCOORD_0": 10
          },
          "indices": 11,
          "material": 2,
          "mode": 4
        }
      ]
    }
  ],
  "nodes": [
    {
      "children": [
        1
      ],
      "matrix": [
        0.15592552721500397,
        0.0,
        0.0,
        0.0,
        0.0,
        3.4622422088182773e-17,
        -0.15592552721500397,
        0.0,
        0.0,
        0.15592552721500397,
        3.4622422088182773e-17,
        0.0,
        0.0,
        0.0,
        0.0,
        1.0
      ],
      "name": "Sketchfab_model"
    },
    {
      "children": [
        2
      ],
      "name": "root"
    },
    {
      "children": [
        3
      ],
      "matrix": [
        1.0,
        0.0,
        0.0,
        0.0,
        0.0,
        2.220446049250313e-16,
        1.0,
        0.0,
        0.0,
        -1.0,
        2.220446049250313e-16,
        0.0,
        0.0,
        0.0,
        0.0,
        1.0
      ],
      "name": "GLTF_SceneRootNode"
    },
    {
      "children": [
        4,
        5,
        6
      ],
      "name": "Cube.001_3"
    },
    {
      "mesh": 0,
      "name": "Object_4"
    },
    {
      "mesh": 1,
      "name": "Object_5"
    },
    {
      "mesh": 2,
      "name": "Object_6"
    }
  ],
  "samplers": [
    {
      "magFilter": 9729,
      "minFilter": 9987,
      "wrapS": 10497,
      "wrapT": 10497
    }
  ],
  "scene": 0,
  "scenes": [
    {
      "name": "Sketchfab_Scene",
      "nodes": [
        0
      ]
    }
  ],
  "textures": [
    {
      "sampler": 0,
      "source": 0
    }
  ]
}
