{
  "accessors": [
    {
      "bufferView": 2,
      "componentType": 5126,
      "count": 10384,
      "max": [
        6.111426830291748,
        6.6740193367004395,
        10.508613586425781
      ],
      "min": [
        -6.111426830291748,
        -4.0745362639427185e-07,
        -10.24788761138916
      ],
      "type": "VEC3"
    },
    {
      "bufferView": 2,
      "byteOffset": 124608,
      "componentType": 5126,
      "count": 10384,
      "max": [
        1.0,
        1.0,
        1.0
      ],
      "min": [
        -1.0,
        -1.0,
        -1.0
      ],
      "type": "VEC3"
    },
    {
      "bufferView": 3,
      "componentType": 5126,
      "count": 10384,
      "max": [
        1.0,
        0.9999158382415771,
        0.9997749924659729,
        1.0
      ],
      "min": [
        -1.0,
        -1.0,
        -1.0,
        1.0
      ],
      "type": "VEC4"
    },
    {
      "bufferView": 1,
      "componentType": 5126,
      "count": 10384,
      "max": [
        0.993310809135437,
        0.9909870624542236
      ],
      "min": [
        0.00390625,
        0.00390625
      ],
      "type": "VEC2"
    },
    {
      "bufferView": 0,
      "componentType": 5125,
      "count": 49122,
      "type": "SCALAR"
    },
    {
      "bufferView": 2,
      "byteOffset": 249216,
      "componentType": 5126,
      "count": 588,
      "max": [
        9.468729019165039,
        1.4999995231628418,
        7.413205623626709
      ],
      "min": [
        7.968729019165039,
        -4.959060220244282e-07,
        6.619101524353027
      ],
      "type": "VEC3"
    },
    {
      "bufferView": 2,
      "byteOffset": 256272,
      "componentType": 5126,
      "count": 588,
      "max": [
        0.9567291736602783,
        0.9870882630348206,
        1.0
      ],
      "min": [
        -0.9567325711250305,
        -0.9870879054069519,
        -1.0
      ],
      "type": "VEC3"
    },
    {
      "bufferView": 3,
      "byteOffset": 166144,
      "componentType": 5126,
      "count": 588,
      "max": [
        0.7120949625968933,
        0.9998271465301514,
        0.932542622089386,
        1.0
      ],
      "min": [
        -0.8993076682090759,
        -1.0,
        -0.9912253618240356,
        1.0
      ],
      "type": "VEC4"
    },
    {
      "bufferView": 1,
      "byteOffset": 83072,
      "componentType": 5126,
      "count": 588,
      "max": [
        0.9767791628837585,
        0.9833882451057434
      ],
      "min": [
        0.00390625,
        0.00390625
      ],
      "type": "VEC2"
    },
    {
      "bufferView": 0,
      "byteOffset": 196488,
      "componentType": 5125,
      "count": 2448,
      "type": "SCALAR"
    }
  ],
  "asset": {
    "extras": {
      "author": "Red Kaiser (https://sketchfab.com/pascakanonno555)",
      "license": "CC-BY-NC-4.0 (http://creativecommons.org/licenses/by-nc/4.0/)",
      "source": "https://sketchfab.com/3d-models/igame-wireless-gaming-mouse-3eb30041ebc946dd8cff84820b361b70",
      "title": "IGame Wireless Gaming Mouse"
    },
    "generator": "Sketchfab-15.37.0",
    "version": "2.0"
  },
  "bufferViews": [
    {
      "buffer": 0,
      "byteLength": 206280,
      "name": "floatBufferViews",
      "target": 34963
    },
    {
      "buffer": 0,
      "byteLength": 87776,
      "byteOffset": 206280,
      "byteStride": 8,
      "name": "floatBufferViews",
      "target": 34962
    },
    {
      "buffer": 0,
      "byteLength": 263328,
      "byteOffset": 294056,
      "byteStride": 12,
      "name": "floatBufferViews",
      "target": 34962
    },
    {
      "buffer": 0,
      "byteLength": 175552,
      "byteOffset": 557384,
      "byteStride": 16,
      "name": "floatBufferViews",
      "target": 34962
    }
  ],
  "buffers": [
    {
      "byteLength": 732936,
      "uri": "scene.bin"
    }
  ],
  "extensionsUsed": [
    "KHR_materials_emissive_strength"
  ],
  "images": [
    {
      "uri": "textures/mouse_baseColor.jpeg"
    },
    {
      "uri": "textures/mouse_metallicRoughness.png"
    },
    {
      "uri": "textures/mouse_emissive.jpeg"
    },
    {
      "uri": "textures/mouse_normal.png"
    },
    {
      "uri": "textures/adapter_baseColor.jpeg"
    },
    {
      "uri": "textures/adapter_metallicRoughness.png"
    },
    {
      "uri": "textures/adapter_normal.png"
    }
  ],
  "materials": [
    {
      "doubleSided": true,
      "emissiveFactor": [
        1.0,
        1.0,
        1.0
      ],
      "emissiveTexture": {
        "index": 2
      },
      "extensions": {
        "KHR_materials_emissive_strength": {
          "emissiveStrength": 4.860967195328595
        }
      },
      "name": "mouse",
      "normalTexture": {
        "index": 3
      },
      "occlusionTexture": {
        "index": 1
      },
      "pbrMetallicRoughness": {
        "baseColorTexture": {
          "index": 0
        },
        "metallicRoughnessTexture": {
          "index": 1
        }
      }
    },
    {
      "doubleSided": true,
      "name": "adapter",
      "normalTexture": {
        "index": 6
      },
      "occlusionTexture": {
        "index": 5
      },
      "pbrMetallicRoughness": {
        "baseColorTexture": {
          "index": 4
        },
        "metallicRoughnessTexture": {
          "index": 5
        }
      }
    }
  ],
  "meshes": [
    {
      "name": "mouse_mouse_0",
      "primitives": [
        {
          "attributes": {
            "NORMAL": 1,
            "POSITION": 0,
            "TANGENT": 2,
            "TEXCOORD_0": 3
          },
          "indices": 4,
          "material": 0,
          "mode": 4
        }
      ]
    },
    {
      "name": "adapter_adapter_0",
      "primitives": [
        {
          "attributes": {
            "NORMAL": 6,
            "POSITION": 5,
            "TANGENT": 7,
            "TEXCOORD_0": 8
          },
          "indices": 9,
          "material": 1,
          "mode": 4
        }
      ]
    }
  ],
  "nodes": [
    {
      "children": [
        1
      ],
      "matrix": [
        1.0,
        0.0,
        0.0,
        0.0,
        0.0,
        2.220446049250313e-16,
        -1.0,
        0.0,
        0.0,
        1.0,
        2.220446049250313e-16,
        0.0,
        0.0,
        0.0,
        0.0,
        1.0
      ],
      "name": "Sketchfab_model"
    },
    {
      "children": [
        2
      ],
      "matrix": [
        0.009999999776482582,
        0.0,
        0.0,
        0.0,
        0.0,
        0.0,
        0.009999999776482582,
        0.0,
        0.0,
        -0.009999999776482582,
        0.0,
        0.0,
        0.0,
        0.0,
        0.0,
        1.0
      ],
      "name": "b34235c736204029803ac59aa6c25316.fbx"
    },
    {
      "children": [
        3,
        5
      ],
      "name": "RootNode"
    },
    {
      "children": [
        4
      ],
      "name": "mouse"
    },
    {
      "mesh": 0,
      "name": "mouse_mouse_0"
    },
    {
      "children": [
        6
      ],
      "name": "adapter"
    },
    {
      "mesh": 1,
      "name": "adapter_adapter_0"
    }
  ],
  "samplers": [
    {
      "magFilter": 9729,
      "minFilter": 9987,
      "wrapS": 10497,
      "wrapT": 10497
    }
  ],
  "scene": 0,
  "scenes": [
    {
      "name": "Sketchfab_Scene",
      "nodes": [
        0
      ]
    }
  ],
  "textures": [
    {
      "sampler": 0,
      "source": 0
    },
    {
      "sampler": 0,
      "source": 1
    },
    {
      "sampler": 0,
      "source": 2
    },
    {
      "sampler": 0,
      "source": 3
    },
    {
      "sampler": 0,
      "source": 4
    },
    {
      "sampler": 0,
      "source": 5
    },
    {
      "sampler": 0,
      "source": 6
    }
  ]
}
