{
  "accessors": [
    {
      "bufferView": 2,
      "componentType": 5126,
      "count": 160,
      "max": [
        9.151617050170898,
        3.640162944793701,
        -0.0326480008661747
      ],
      "min": [
        -9.143726348876953,
        -3.6278059482574463,
        -0.24993999302387238
      ],
      "type": "VEC3"
    },
    {
      "bufferView": 2,
      "byteOffset": 1920,
      "componentType": 5126,
      "count": 160,
      "max": [
        0.9951865673065186,
        0.9951865673065186,
        1.0
      ],
      "min": [
        -0.9951865673065186,
        -0.9951865673065186,
        -1.0
      ],
      "type": "VEC3"
    },
    {
      "bufferView": 1,
      "componentType": 5126,
      "count": 160,
      "max": [
        0.9809979796409607,
        0.9844160079956055
      ],
      "min": [
        0.02080499939620495,
        0.40668100118637085
      ],
      "type": "VEC2"
    },
    {
      "bufferView": 0,
      "componentType": 5125,
      "count": 468,
      "type": "SCALAR"
    },
    {
      "bufferView": 2,
      "byteOffset": 3840,
      "componentType": 5126,
      "count": 6240,
      "max": [
        8.926972389221191,
        3.441394090652466,
        0.05408800020813942
      ],
      "min": [
        -8.882667541503906,
        -3.4349300861358643,
        -0.1359120011329651
      ],
      "type": "VEC3"
    },
    {
      "bufferView": 2,
      "byteOffset": 78720,
      "componentType": 5126,
      "count": 6240,
      "max": [
        0.9961432218551636,
        0.9877578616142273,
        1.0
      ],
      "min": [
        -0.9961432218551636,
        -0.9877578616142273,
        -1.0
      ],
      "type": "VEC3"
    },
    {
      "bufferView": 1,
      "byteOffset": 1280,
      "componentType": 5126,
      "count": 6240,
      "max": [
        0.9869279861450195,
        0.5863909721374512
      ],
      "min": [
        0.022089999169111252,
        0.01874300092458725
      ],
      "type": "VEC2"
    },
    {
      "bufferView": 0,
      "byteOffset": 1872,
      "componentType": 5125,
      "count": 17784,
      "type": "SCALAR"
    }
  ],
  "asset": {
    "extras": {
      "author": "Saksham Tale (https://sketchfab.com/saksham_tale)",
      "license": "CC-BY-4.0 (http://creativecommons.org/licenses/by/4.0/)",
      "source": "https://sketchfab.com/3d-models/compact-keyboard-custom-75-gaming-keyboard-a8393df7a4944f0680869141fcc56b86",
      "title": "Compact Keyboard – Custom 75% Gaming Keyboard"
    },
    "generator": "Sketchfab-17.17.0",
    "version": "2.0"
  },
  "bufferViews": [
    {
      "buffer": 0,
      "byteLength": 73008,
      "name": "floatBufferViews",
      "target": 34963
    },
    {
      "buffer": 0,
      "byteLength": 51200,
      "byteOffset": 73008,
      "byteStride": 8,
      "name": "floatBufferViews",
      "target": 34962
    },
    {
      "buffer": 0,
      "byteLength": 153600,
      "byteOffset": 124208,
      "byteStride": 12,
      "name": "floatBufferViews",
      "target": 34962
    }
  ],
  "buffers": [
    {
      "byteLength": 277808,
      "uri": "scene.bin"
    }
  ],
  "extensionsUsed": [
    "KHR_materials_unlit"
  ],
  "images": [
    {
      "uri": "textures/Material_baseColor.png"
    }
  ],
  "materials": [
    {
      "doubleSided": true,
      "extensions": {
        "KHR_materials_unlit": {}
      },
      "name": "Material",
      "pbrMetallicRoughness": {
        "baseColorTexture": {
          "index": 0
        },
        "metallicFactor": 0.0
      }
    },
    {
      "doubleSided": true,
      "extensions": {
        "KHR_materials_unlit": {}
      },
      "name": "base",
      "pbrMetallicRoughness": {
        "baseColorFactor": [
          0.5,
          0.5,
          0.5,
          1.0
        ],
        "baseColorTexture": {
          "index": 0
        },
        "metallicFactor": 0.0
      }
    }
  ],
  "meshes": [
    {
      "name": "Object_0",
      "primitives": [
        {
          "attributes": {
            "NORMAL": 1,
            "POSITION": 0,
            "TEXCOORD_0": 2
          },
          "indices": 3,
          "material": 1,
          "mode": 4
        }
      ]
    },
    {
      "name": "Object_1",
      "primitives": [
        {
          "attributes": {
            "NORMAL": 5,
            "POSITION": 4,
            "TEXCOORD_0": 6
          },
          "indices": 7,
          "material": 0,
          "mode": 4
        }
      ]
    }
  ],
  "nodes": [
    {
      "children": [
        1
      ],
      "matrix": [
        -0.1859198659658432,
        -0.4530362188816072,
        0.8718898892402648,
        0.0,
        0.09537124633789063,
        0.874850571155548,
        0.4749113619327547,
        0.0,
        -0.9779254198074341,
        0.17144869267940524,
        -0.1194454655051231,
        0.0,
        0.0,
        0.0,
        0.0,
        1.0
      ],
      "name": "Sketchfab_model"
    },
    {
      "children": [
        2,
        3
      ],
      "name": "KEYBOARD.obj.cleaner.materialmerger.gles"
    },
    {
      "mesh": 0,
      "name": "Object_2"
    },
    {
      "mesh": 1,
      "name": "Object_3"
    }
  ],
  "samplers": [
    {
      "magFilter": 9729,
      "minFilter": 9987,
      "wrapS": 10497,
      "wrapT": 10497
    }
  ],
  "scene": 0,
  "scenes": [
    {
      "name": "Sketchfab_Scene",
      "nodes": [
        0
      ]
    }
  ],
  "textures": [
    {
      "sampler": 0,
      "source": 0
    }
  ]
}
